<svg xmlns="http://www.w3.org/2000/svg" width="1024" height="1024" viewBox="0 0 1024 1024">
  <defs>
    <linearGradient id="bg" x1="0" y1="0" x2="1" y2="1">
      <stop offset="0%" stop-color="#FFE7E7"/>
      <stop offset="100%" stop-color="#FFF6E8"/>
    </linearGradient>
    <linearGradient id="accent" x1="0" y1="0" x2="1" y2="1">
      <stop offset="0%" stop-color="#5A6FF5"/>
      <stop offset="100%" stop-color="#9B5CF4"/>
    </linearGradient>
  </defs>
  <rect width="1024" height="1024" rx="64" fill="url(#bg)"/>
  <g transform="translate(128,160)">
    <circle cx="384" cy="200" r="140" fill="#FFD9A8"/>
    <circle cx="340" cy="190" r="18" fill="#2F3B8F"/>
    <circle cx="428" cy="190" r="18" fill="#2F3B8F"/>
    <path d="M332 250c28 22 76 22 104 0" stroke="#F59CA9" stroke-width="10" fill="none" stroke-linecap="round"/>
    <path d="M244 152c36-72 120-96 192-96s156 24 192 96c-44-20-92-32-192-32s-148 12-192 32z" fill="#2F3B8F"/>

    <rect x="160" y="360" width="448" height="220" rx="28" fill="#FFFFFF" stroke="#E6E8EF" stroke-width="8"/>
    <rect x="184" y="384" width="400" height="28" rx="14" fill="url(#accent)"/>
    <rect x="184" y="428" width="260" height="18" rx="9" fill="#9B5CF4"/>
    <rect x="184" y="456" width="320" height="18" rx="9" fill="#5A6FF5"/>
    <rect x="184" y="484" width="220" height="18" rx="9" fill="#9B5CF4"/>
    <rect x="184" y="512" width="360" height="18" rx="9" fill="#5A6FF5"/>

    <rect x="96" y="600" width="576" height="120" rx="36" fill="#2F3B8F"/>
    <rect x="136" y="620" width="496" height="28" rx="14" fill="#9B5CF4" opacity="0.3"/>
    <circle cx="176" cy="684" r="18" fill="#FFFFFF"/>
    <circle cx="224" cy="684" r="18" fill="#FFFFFF"/>
    <circle cx="272" cy="684" r="18" fill="#FFFFFF"/>
  </g>
  <text x="512" y="960" text-anchor="middle" font-family="Inter,system-ui,Segoe UI,Roboto,Helvetica,Arial" font-size="40" font-weight="700" fill="#2F3B8F">Software Engineer (Chibi)</text>
</svg>
